<svg width="234" height="159" viewBox="0 0 234 159" fill="none" xmlns="http://www.w3.org/2000/svg">
<path d="M80.2 0.300049V48L53.7 34.1L0.799988 65.9001V127.5L53.9 158.3L106.6 126V15.5L80.2 0.300049ZM80.2 111L54.1 126.1L27.9 110.9V80.6001L54.1 65.2L80.3 80.2V111H80.2Z" fill="#34B3B6"/>
<path d="M149.815 66.62H146.815V84.8C145.795 82.88 142.015 78.08 134.935 78.08C126.175 78.08 120.055 84.92 120.055 94.52C120.055 104 126.355 110.78 135.235 110.78C142.735 110.78 146.095 105.44 146.815 104.24V110H149.815V66.62ZM146.935 94.52C146.935 101.84 142.375 107.96 135.115 107.96C128.455 107.96 123.175 102.68 123.175 94.52C123.175 86.54 128.215 80.9 134.995 80.9C141.475 80.9 146.935 85.88 146.935 94.52ZM158.839 110H161.839V78.86H158.839V110ZM157.879 70.58C157.879 71.96 158.959 73.04 160.339 73.04C161.719 73.04 162.799 71.96 162.799 70.58C162.799 69.2 161.719 68.12 160.339 68.12C158.959 68.12 157.879 69.2 157.879 70.58ZM198.33 66.62H195.33V84.8C194.31 82.88 190.53 78.08 183.45 78.08C174.69 78.08 168.57 84.92 168.57 94.52C168.57 104 174.87 110.78 183.75 110.78C191.25 110.78 194.61 105.44 195.33 104.24V110H198.33V66.62ZM195.45 94.52C195.45 101.84 190.89 107.96 183.63 107.96C176.97 107.96 171.69 102.68 171.69 94.52C171.69 86.54 176.73 80.9 183.51 80.9C189.99 80.9 195.45 85.88 195.45 94.52ZM205.194 100.46C205.194 106.22 210.054 110.78 217.134 110.78C221.634 110.78 224.394 108.98 226.074 107.06L226.614 110H229.074V89.06C229.074 82.58 225.474 78.08 217.734 78.08C212.454 78.08 208.374 80.3 206.694 81.38L207.954 83.72C210.114 82.4 213.414 80.84 217.554 80.84C222.654 80.84 226.074 83.66 226.074 88.88V93.62C224.694 92.06 221.394 90.26 217.134 90.26C210.234 90.26 205.194 94.58 205.194 100.46ZM208.254 100.46C208.254 96.26 211.734 93.02 217.254 93.02C222.714 93.02 226.254 96.02 226.254 100.46C226.254 104.78 222.594 108.02 217.314 108.02C211.734 108.02 208.254 104.6 208.254 100.46Z" fill="#33B2B7"/>
</svg>
